<?xml version="1.0" encoding="UTF-8" standalone="no"?>
<svg
   xmlns:dc="http://purl.org/dc/elements/1.1/"
   xmlns:cc="http://creativecommons.org/ns#"
   xmlns:rdf="http://www.w3.org/1999/02/22-rdf-syntax-ns#"
   xmlns:svg="http://www.w3.org/2000/svg"
   xmlns="http://www.w3.org/2000/svg"
   xmlns:sodipodi="http://sodipodi.sourceforge.net/DTD/sodipodi-0.dtd"
   xmlns:inkscape="http://www.inkscape.org/namespaces/inkscape"
   sodipodi:docname="zappull.svg"
   inkscape:version="1.0 (4035a4f, 2020-05-01)"
   id="svg8"
   version="1.1"
   viewBox="0 0 135.46666 135.46667"
   height="512"
   width="512">
  <defs
     id="defs2" />
  <sodipodi:namedview
     inkscape:window-maximized="0"
     inkscape:window-y="239"
     inkscape:window-x="0"
     inkscape:window-height="855"
     inkscape:window-width="1440"
     showborder="true"
     borderlayer="false"
     inkscape:showpageshadow="false"
     inkscape:pagecheckerboard="true"
     units="px"
     showgrid="false"
     inkscape:document-rotation="0"
     inkscape:current-layer="layer1"
     inkscape:document-units="px"
     inkscape:cy="224.72481"
     inkscape:cx="258.65681"
     inkscape:zoom="1.33"
     inkscape:pageshadow="2"
     inkscape:pageopacity="0.0"
     borderopacity="1.0"
     bordercolor="#666666"
     pagecolor="#ffffff"
     id="base" />
  <metadata
     id="metadata5">
    <rdf:RDF>
      <cc:Work
         rdf:about="">
        <dc:format>image/svg+xml</dc:format>
        <dc:type
           rdf:resource="http://purl.org/dc/dcmitype/StillImage" />
        <dc:title></dc:title>
      </cc:Work>
    </rdf:RDF>
  </metadata>
  <g
     sodipodi:insensitive="true"
     style="display:inline"
     id="layer1"
     inkscape:groupmode="layer"
     inkscape:label="Layer 1">
    <g
       transform="scale(5.6443742)"
       id="g1525">
      <path
         d="M 20.52,3.449 C 18.24,1.245 15.24,0 12.045,0 2.875,0 -2.883,9.935 1.696,17.838 L 0,24 6.335,22.348 c 2.76,1.491 5.021,1.359 5.716,1.447 10.633,0 15.926,-12.864 8.454,-20.307 z"
         fill="#eceff1"
         id="path1508" />
      <path
         d="M 12.067,21.751 12.061,21.75 H 12.045 C 8.863,21.75 6.83,20.243 6.63,20.156 L 2.88,21.131 3.885,17.486 3.646,17.111 C 2.656,15.535 2.13,13.72 2.13,11.851 c 0,-8.793 10.745,-13.19 16.963,-6.975 6.203,6.15 1.848,16.875 -7.026,16.875 z"
         fill="#4caf50"
         id="path1510" />
    </g>
  </g>
  <g
     inkscape:label="Layer 2"
     id="layer2"
     inkscape:groupmode="layer">
    <g
       style="fill:#eceff1;fill-opacity:1"
       transform="matrix(0.17367586,0,0,0.17367586,38.048457,33.909719)"
       id="g1660">
      <g
         style="fill:#eceff1;fill-opacity:1"
         id="g1601">
	<g
   style="fill:#eceff1;fill-opacity:1"
   id="g1599">
		<g
   style="fill:#eceff1;fill-opacity:1"
   id="g1597">
			<path
   style="fill:#eceff1;fill-opacity:1"
   d="m 266.017,167.717 c -7.502,-7.498 -19.699,-7.498 -27.2,0 l -90.255,90.256 c -11.101,11.1 -29.162,11.1 -40.268,-0.002 -11.1,-11.104 -11.1,-29.165 0.001,-40.267 l 90.254,-90.254 c 7.498,-7.502 7.498,-19.699 0,-27.203 L 155.03,56.727 c -7.498,-7.497 -19.701,-7.497 -27.199,0 l -90.259,90.257 c -50.096,50.093 -50.094,131.609 0.002,181.708 50.098,50.096 131.611,50.098 181.708,0 l 90.255,-90.257 c 7.5,-7.498 7.5,-19.701 0,-27.199 z m -32.781,114.379 -38.08,-38.078 57.259,-57.263 38.079,38.079 z"
   id="path1593" />

			<path
   style="fill:#eceff1;fill-opacity:1"
   d="M 389.664,26.142 C 388.878,24.34 386.902,23.375 385,23.862 L 266.086,54.138 c -1.397,0.357 -2.496,1.434 -2.879,2.827 -0.382,1.388 0.014,2.873 1.031,3.892 l 26.297,26.318 -60.823,39.4 c -1.678,1.086 -2.298,3.24 -1.458,5.054 0.203,0.437 0.478,0.822 0.802,1.146 1.021,1.019 2.55,1.441 3.996,1.003 L 348.643,98.739 c 1.347,-0.404 2.38,-1.489 2.727,-2.854 0.344,-1.364 -0.054,-2.808 -1.042,-3.805 L 328.277,69.862 388.171,31.111 c 1.645,-1.067 2.279,-3.17 1.493,-4.969 z"
   id="path1595" />

		</g>

	</g>

</g>
      <g
         style="fill:#eceff1;fill-opacity:1"
         id="g1603">
</g>
      <g
         style="fill:#eceff1;fill-opacity:1"
         id="g1605">
</g>
      <g
         style="fill:#eceff1;fill-opacity:1"
         id="g1607">
</g>
      <g
         style="fill:#eceff1;fill-opacity:1"
         id="g1609">
</g>
      <g
         style="fill:#eceff1;fill-opacity:1"
         id="g1611">
</g>
      <g
         style="fill:#eceff1;fill-opacity:1"
         id="g1613">
</g>
      <g
         style="fill:#eceff1;fill-opacity:1"
         id="g1615">
</g>
      <g
         style="fill:#eceff1;fill-opacity:1"
         id="g1617">
</g>
      <g
         style="fill:#eceff1;fill-opacity:1"
         id="g1619">
</g>
      <g
         style="fill:#eceff1;fill-opacity:1"
         id="g1621">
</g>
      <g
         style="fill:#eceff1;fill-opacity:1"
         id="g1623">
</g>
      <g
         style="fill:#eceff1;fill-opacity:1"
         id="g1625">
</g>
      <g
         style="fill:#eceff1;fill-opacity:1"
         id="g1627">
</g>
      <g
         style="fill:#eceff1;fill-opacity:1"
         id="g1629">
</g>
      <g
         style="fill:#eceff1;fill-opacity:1"
         id="g1631">
</g>
    </g>
    <path
       transform="scale(0.26458333)"
       id="path1662"
       d="M 215.48699,365.41135 C 188.87238,361.46286 164.91108,343.2706 152.56085,317.63562 143.4228,298.66805 143.60883,269.53175 152.99268,250 c 7.44136,-15.48862 70.44687,-82.72526 80.51337,-85.92024 4.43791,-1.40854 9.86528,2.27113 23.97247,16.25292 10.02967,9.94052 18.23577,20.02007 18.23577,22.39901 0,2.37894 -15.04286,19.40749 -33.42858,37.84123 -30.44482,30.52435 -33.42857,34.44713 -33.42857,43.94912 0,12.25678 6.49523,18.3351 19.59269,18.3351 7.40152,0 13.94988,-5.17833 41.55017,-32.85714 20.4563,-20.51449 34.95899,-32.85714 38.60736,-32.85714 5.85298,0 41.39264,33.21745 41.39264,38.68799 0,4.76643 -75.10722,77.57964 -85.27519,82.67062 -12.80695,6.41228 -33.25207,9.28149 -49.23782,6.90988 z m 101.03612,-70.50111 19.22701,-19.37547 -13.67661,-13.47096 -13.6766,-13.47095 -19.81461,19.96761 -19.8146,19.96761 12.6396,12.87882 c 6.95178,7.08335 13.37067,12.87881 14.26421,12.87881 0.89353,0 10.27675,-8.71896 20.8516,-19.37547 z"
       style="fill:#eceff1;fill-opacity:1;stroke-width:0" />
    <path
       transform="scale(0.26458333)"
       id="path1664"
       d="m 295.71429,213.06401 c 0,-0.67194 7.39285,-5.78681 16.42857,-11.36638 9.03571,-5.57957 18.34228,-11.4023 20.68126,-12.93939 3.54793,-2.33157 2.64112,-4.45743 -5.47188,-12.82793 -7.12913,-7.35539 -8.64543,-10.41213 -5.68126,-11.45292 9.65658,-3.39068 74.82784,-18.93095 75.70638,-18.05241 0.53353,0.53353 -7.97955,6.4926 -18.91794,13.24238 -10.93839,6.74978 -19.88799,13.05126 -19.88799,14.00329 0,0.95202 3.35912,5.23712 7.4647,9.52243 l 7.4647,7.79147 -29.60756,8.95196 c -16.28415,4.92358 -33.33513,10.16634 -37.89105,11.65058 -9.37484,3.05416 -10.28793,3.18525 -10.28793,1.47692 z"
       style="fill:#eceff1;fill-opacity:1;stroke-width:0" />
    <path
       transform="scale(0.26458333)"
       id="path1666"
       d=""
       style="fill:#eceff1;fill-opacity:1;stroke-width:0" />
    <path
       transform="scale(0.26458333)"
       id="path1668"
       d=""
       style="fill:#eceff1;fill-opacity:1;stroke-width:0" />
    <path
       transform="scale(0.26458333)"
       id="path1670"
       d="m 220.30075,264.28797 c 0,-0.42866 1.5595,-2.2878 3.46556,-4.13142 9.30036,-8.99571 41.08384,-42.47571 46.28311,-48.75358 3.37456,-4.07463 5.89043,-7.81222 5.89043,-8.75084 0,-5.24163 -28.66364,-34.80302 -37.20757,-38.3729 -3.48573,-1.45643 -5.86124,-0.96629 -9.55285,1.97104 -1.52651,1.21461 -3.02345,2.20838 -3.32655,2.20838 -0.97192,0 3.0223,-3.86472 5.12482,-4.95866 2.62524,-1.36591 8.38435,-1.35479 10.97693,0.0212 3.09373,1.64197 33.80303,32.83659 34.70116,35.24956 1.17749,3.16355 0.95771,6.26369 -0.66497,9.3795 -1.50825,2.89609 -55.69007,57.51343 -55.69007,56.13772 z"
       style="fill:#eceff1;fill-opacity:1;stroke-width:0" />
    <path
       transform="scale(0.26458333)"
       id="path1672"
       d="m 147.16286,306.38539 c -1.96774,-7.10844 -2.79017,-13.64573 -2.79628,-22.22675 -0.0134,-18.78703 5.70147,-35.61096 17.27647,-50.8603 4.25428,-5.60474 21.8156,-23.70908 21.8156,-22.49016 0,0.32762 -2.79191,3.70556 -6.20425,7.50653 -21.73474,24.21014 -27.16916,33.14958 -30.29586,49.83569 -2.08521,11.12803 -1.47278,29.84543 1.25881,38.4727 0.42668,1.34758 0.64226,2.85071 0.47907,3.34028 -0.16319,0.48956 -0.85329,-1.12053 -1.53356,-3.57799 z"
       style="fill:#eceff1;fill-opacity:1;stroke-width:0" />
    <path
       transform="scale(0.26458333)"
       id="path1674"
       d=""
       style="fill:#eceff1;fill-opacity:1;stroke-width:0" />
    <path
       transform="scale(0.26458333)"
       id="path1676"
       d=""
       style="fill:#eceff1;fill-opacity:1;stroke-width:0" />
    <path
       transform="scale(0.26458333)"
       id="path1678"
       d=""
       style="fill:#eceff1;fill-opacity:1;stroke-width:0" />
    <path
       transform="scale(0.26458333)"
       id="path1680"
       d=""
       style="fill:#eceff1;fill-opacity:1;stroke-width:0" />
    <path
       transform="scale(0.26458333)"
       id="path1682"
       d="m 219.54887,365.44864 c -13.01798,-1.25866 -29.3424,-7.68093 -39.87343,-15.68681 -10.9573,-8.32995 -21.00035,-20.60317 -26.69477,-32.62265 -10.52934,-22.22476 -8.27375,-55.87501 4.95854,-73.97433 13.002,-17.78434 53.94071,-61.73502 68.31705,-73.34333 7.65003,-6.17709 8.38196,-6.388 13.52828,-3.89822 3.19736,1.54688 7.25839,5.09968 17.00604,14.87774 7.0431,7.06507 14.12053,14.79183 15.72765,17.17058 2.6536,3.92771 2.83245,4.49239 1.94687,6.14711 -2.04578,3.82259 -16.37499,19.63049 -35.98893,39.70279 -28.56197,29.22945 -29.73939,30.84262 -29.79558,40.82261 -0.0656,11.6489 5.39448,17.58091 16.78932,18.24055 10.24781,0.59324 12.62989,-1.09054 42.1276,-29.77793 10.92035,-10.62037 22.42457,-21.61546 25.56493,-24.43355 6.0928,-5.46754 13.9096,-11.04162 15.48418,-11.04162 1.69285,0 9.94273,5.95716 17.09836,12.34656 8.57443,7.65627 21.63137,21.21083 23.05187,23.93042 0.99417,1.90337 0.89261,2.2144 -1.83299,5.61338 -4.46871,5.57277 -35.99682,37.23604 -51.47514,51.69583 -16.6721,15.575 -25.39636,23.15691 -30.02241,26.09129 -9.00189,5.71002 -30.89908,9.59164 -45.91744,8.13958 z m 87.43687,-60.7118 c 5.58124,-5.27255 14.41707,-14.03638 19.63519,-19.47518 l 9.48748,-9.88871 -13.59436,-13.41956 c -7.47689,-7.38075 -13.82746,-13.50497 -14.11237,-13.60937 -0.48568,-0.17797 -39.35934,39.2709 -39.81557,40.40472 -0.39771,0.98838 25.40324,25.57457 26.83816,25.57457 0.77925,0 5.96819,-4.30254 11.56147,-9.58647 z"
       style="fill:#eceff1;fill-opacity:1;stroke-width:0" />
    <path
       transform="scale(0.26458333)"
       id="path1684"
       d=""
       style="fill:#eceff1;fill-opacity:1;stroke-width:0" />
    <path
       transform="scale(0.26458333)"
       id="path1686"
       d="m 266.22807,358.40886 c 0.17231,-0.15145 3.3584,-2.80252 7.0802,-5.89128 15.24434,-12.65142 59.30067,-55.15592 70.46696,-67.98484 5.30472,-6.09458 7.11576,-7.13711 4.8279,-2.7792 -0.61175,1.16525 -15.94245,16.86306 -34.06823,34.88402 -27.24746,27.08989 -34.16918,33.56921 -39.96011,37.40601 -3.85229,2.55235 -7.37673,4.64064 -7.83208,4.64064 -0.45536,0 -0.68695,-0.12391 -0.51464,-0.27535 z"
       style="fill:#eceff1;fill-opacity:1;stroke-width:0" />
    <path
       transform="scale(0.26458333)"
       id="path1690"
       d=""
       style="fill:#eceff1;fill-opacity:1;stroke-width:0" />
  </g>
</svg>
